<svg xmlns="http://www.w3.org/2000/svg" width="17.583" height="23" viewBox="0 0 17.583 23">
  <g id="Group_645" data-name="Group 645" transform="translate(-3.257 -0.175)">
    <g id="Group_577" data-name="Group 577" transform="translate(4.048 0.926)">
      <path id="Path_454-2" data-name="Path 454-2" d="M19.851,11.067,13.3,1.537a1.6,1.6,0,0,0-2.512,0l-6.549,9.53a1.048,1.048,0,0,0,0,1.218l6.549,9.53a1.6,1.6,0,0,0,2.259.255,1.633,1.633,0,0,0,.253-.255l6.548-9.524A1.051,1.051,0,0,0,19.851,11.067Z" transform="translate(-4.048 -0.926)"/>
    </g>
    <g id="Group_578" data-name="Group 578" transform="translate(4.048 0.926)">
      <path id="Path_454-2-2" data-name="Path 454-2" d="M19.851,11.067,13.3,1.537a1.6,1.6,0,0,0-2.512,0l-6.549,9.53a1.048,1.048,0,0,0,0,1.218l6.549,9.53a1.6,1.6,0,0,0,2.259.255,1.633,1.633,0,0,0,.253-.255l6.548-9.524A1.051,1.051,0,0,0,19.851,11.067Zm-6.839,6.319H11.073V15.755h1.939Zm0-3.261H11.073V5.971h1.939Z" transform="translate(-4.048 -0.926)" fill="#f5f8fa"/>
      <path id="Path_465" data-name="Path 465" d="M19.851,11.067,13.3,1.537a1.6,1.6,0,0,0-2.512,0l-6.549,9.53a1.048,1.048,0,0,0,0,1.218l6.549,9.53a1.6,1.6,0,0,0,2.259.255,1.633,1.633,0,0,0,.253-.255l6.548-9.524A1.051,1.051,0,0,0,19.851,11.067Z" transform="translate(-4.048 -0.926)" fill="none" stroke="#000" stroke-miterlimit="10" stroke-width="1.5"/>
    </g>
  </g>
</svg>
