<svg id="Layer_1" data-name="Layer 1" xmlns="http://www.w3.org/2000/svg" viewBox="0 0 453.8 345.53"><defs><style>.cls-1{fill:#ffffff;}</style></defs><path class="cls-1" d="M272.75,172.89q0,76.61,0,153.21c0,1.15.18,2.53-.37,3.4-.65,1-2,2.25-3,2.24s-2.32-1.25-3-2.27c-.52-.79-.35-2.09-.35-3.17q0-153.45,0-306.91c0-.5,0-1,0-1.5.14-2.43,1.38-3.94,3.27-4s3.34,1.52,3.48,4.06c0,.74,0,1.5,0,2.25Z"/><path class="cls-1" d="M279,196.1V52.6a19.26,19.26,0,0,1,.06-2.74c.25-1.75,1.17-3,3.06-3s3.06,1.08,3.46,2.91a10.14,10.14,0,0,1,.09,2q0,144.5,0,289c0,1,.08,2.23-.45,2.88-.74.93-2.06,2-3.07,1.94s-2.22-1.26-2.83-2.26c-.49-.82-.3-2.1-.3-3.17Q279,268.1,279,196.1Z"/><path class="cls-1" d="M298.54,141.88q0,68,0,136a17.52,17.52,0,0,1-.11,3c-.29,1.68-1.43,3-3.06,2.63A7,7,0,0,1,292.1,281c-.43-.5-.2-1.6-.2-2.43q0-136.74,0-273.47a14.4,14.4,0,0,1,0-1.74c.24-2,1.25-3.38,3.32-3.37s3.11,1.39,3.27,3.4c.06.83,0,1.66,0,2.5Q298.55,73.88,298.54,141.88Z"/><path class="cls-1" d="M311.45,220.07v88.25c0,3.74-1,5.4-3.32,5.37s-3.3-1.72-3.3-5.43q0-88.36,0-176.74a11.27,11.27,0,0,1,.15-2.73c.43-1.73,1.72-3,3.42-2.52,1.17.34,2.19,1.72,2.9,2.86.42.67.13,1.79.13,2.7Q311.46,176,311.45,220.07Z"/><path class="cls-1" d="M77.85,177H6.36c-.92,0-1.84,0-2.75,0-2-.22-3.57-1.24-3.61-3.42s1.63-3.12,3.57-3.5a11,11,0,0,1,2,0q72.24,0,144.47,0c1,0,2.23-.14,2.9.37,1.08.82,2.58,2.24,2.45,3.21-.16,1.2-1.65,2.44-2.86,3.2-.8.5-2.11.22-3.19.22Z"/><path class="cls-1" d="M324.37,164.15v72.94a16.87,16.87,0,0,1,0,2.25,3.06,3.06,0,0,1-3.1,3,3.1,3.1,0,0,1-3.34-2.73,10.46,10.46,0,0,1-.08-2.24V90.45c0-.83-.25-1.93.17-2.43.88-1,2.16-2.42,3.24-2.38s2.23,1.53,3,2.61c.4.55.11,1.62.11,2.45Q324.38,127.42,324.37,164.15Z"/><path class="cls-1" d="M363.23,189v57.48c0,.83.27,1.9-.14,2.44-.82,1.09-2,2.57-3.07,2.62s-2.34-1.36-3.22-2.39c-.44-.51-.26-1.6-.26-2.43q0-57.72,0-115.45c0-.34,0-.67,0-1,.09-2.49,1.46-4.18,3.37-4.17s3.31,1.61,3.31,4.17q0,21.62,0,43.23Z"/><path class="cls-1" d="M408.3,164.85v-48.5c0-3.47,1.12-5.09,3.42-5s3.26,1.65,3.26,5q0,16,0,32v65c0,3.63-1.1,5.45-3.3,5.48s-3.38-1.77-3.38-5.39Z"/><path class="cls-1" d="M330.75,182.35q0-18.12,0-36.24a14.9,14.9,0,0,1,.08-2.5,3,3,0,0,1,3.21-2.86,3.09,3.09,0,0,1,3.24,2.85,13.77,13.77,0,0,1,.09,2.49q0,36.49,0,73c0,3.78-1,5.36-3.32,5.37s-3.3-1.54-3.3-5.35Q330.74,200.72,330.75,182.35Z"/><path class="cls-1" d="M369.44,173.35c0-5.75,0-11.5,0-17.24a5.27,5.27,0,0,1,.66-3.08,4.41,4.41,0,0,1,3.07-1.53,4,4,0,0,1,2.57,1.92,5.76,5.76,0,0,1,.42,2.91q0,17.11,0,34.24a12.6,12.6,0,0,1-.05,1.74c-.24,1.88-1.24,3.21-3.17,3.28s-3.21-1.3-3.45-3.25a35.51,35.51,0,0,1-.08-4.5C369.43,183,369.44,178.18,369.44,173.35Z"/><path class="cls-1" d="M343.75,172.68c0-6.24,0-12.48,0-18.73,0-2.72,1.16-4.11,3.26-4.09s3.28,1.55,3.29,4.15q0,18.72,0,37.46c0,2.56-1.29,4.21-3.22,4.28s-3.32-1.56-3.33-4.34Q343.74,182,343.75,172.68Z"/><path class="cls-1" d="M427.86,172.47c0,5.65,0,11.31,0,17,0,2.83-1.22,4.35-3.35,4.31s-3.22-1.57-3.23-4.2q0-17.08,0-34.18c0-2.78,1.28-4.36,3.37-4.31s3.2,1.56,3.21,4.45C427.87,161.16,427.86,166.81,427.86,172.47Z"/><path class="cls-1" d="M382.44,170.88c0-4.58,0-9.15,0-13.73,0-2.77,1.31-4.33,3.43-4.27s3.21,1.54,3.22,4.24q0,13.86,0,27.71c0,2.72-1.41,4.4-3.44,4.31s-3.2-1.66-3.21-4.28C382.42,180.2,382.44,175.54,382.44,170.88Z"/><path class="cls-1" d="M395.38,173.49c0-4.58,0-9.16,0-13.75,0-2.65,1.21-4.23,3.16-4.33s3.52,1.49,3.54,4.25q.09,13.76,0,27.5c0,2.85-1.33,4.33-3.46,4.28s-3.23-1.53-3.25-4.45C395.36,182.49,395.38,178,395.38,173.49Z"/><path class="cls-1" d="M227.28,172.35c0-4.5,0-9,0-13.49,0-2.33,1.14-3.46,3.29-3.46s3.31,1.19,3.32,3.47q0,13.63,0,27.25c0,2.45-1.24,3.65-3.47,3.58s-3.13-1.22-3.14-3.6C227.27,181.52,227.28,176.94,227.28,172.35Z"/><path class="cls-1" d="M447.2,172.45c0-4.41,0-8.82,0-13.24,0-2.64,1.27-4.11,3.34-4.05s3.21,1.52,3.22,4q0,13.25,0,26.48c0,2.56-1.37,4.12-3.4,4.07s-3.14-1.53-3.16-4C447.18,181.28,447.2,176.86,447.2,172.45Z"/><path class="cls-1" d="M175.49,172.61c0-3.42,0-6.83,0-10.25,0-2.19,1.31-3.5,3.39-3.37s3.32,1,3.32,3.24c0,6.91,0,13.83,0,20.74,0,2.25-1.46,3.11-3.43,3.08s-3.33-.91-3.29-3.2C175.53,179.44,175.49,176,175.49,172.61Z"/><path class="cls-1" d="M440.84,172c0,3.41,0,6.81,0,10.21,0,2.6-1.3,4.14-3.31,4.14s-3.3-1.46-3.31-4.11q-.06-10.33,0-20.67c0-2.51,1.48-4.15,3.41-4.07s3.17,1.64,3.21,4C440.88,165,440.84,168.5,440.84,172Z"/><path class="cls-1" d="M208,173.34c0,3.07.06,6.15,0,9.22-.06,2.47-1.31,3.86-3.28,3.87s-3.32-1.44-3.33-3.85q-.08-9.47,0-18.93c0-2.36,1.48-3.9,3.43-3.74,2.22.18,3.16,1.62,3.18,3.71C208,166.86,208,170.1,208,173.34Z"/><path class="cls-1" d="M259.76,173.1c0,3.15,0,6.31,0,9.46,0,2.39-1.34,3.84-3.3,3.86s-3.3-1.37-3.32-3.84q-.09-9.47,0-18.92c0-2.39,1.48-3.85,3.42-3.77s3.17,1.61,3.2,4C259.79,167,259.76,170,259.76,173.1Z"/><path class="cls-1" d="M195.11,173.11c0,1.83.07,3.66,0,5.49-.1,2.15-1.57,3.7-3.37,3.56-2.19-.17-3.24-1.55-3.27-3.67-.05-3.49-.06-7,0-10.47,0-2.4,1.37-3.82,3.37-3.8s3.21,1.46,3.29,3.9C195.15,169.78,195.11,171.45,195.11,173.11Z"/><path class="cls-1" d="M169.26,173.28c0,1.75.07,3.5,0,5.24-.11,2.07-1.12,3.59-3.32,3.62s-3.28-1.51-3.34-3.57c-.09-3.57-.1-7.15,0-10.72,0-2,1-3.54,3.29-3.62,2-.07,3.23,1.4,3.39,3.82a4.17,4.17,0,0,1,0,.5v4.73Z"/><path class="cls-1" d="M246.81,173.29c0,1.83.07,3.66,0,5.49-.1,2-1.22,3.33-3.27,3.36a3,3,0,0,1-3.28-3.08c-.15-3.9-.17-7.81,0-11.71a3,3,0,0,1,3.49-3.09c2.1.15,3,1.55,3.07,3.54C246.85,169.63,246.81,171.46,246.81,173.29Z"/><path class="cls-1" d="M220.89,173.09c0,1.91.06,3.82,0,5.73s-1.22,3.34-3.27,3.32a3.1,3.1,0,0,1-3.23-3.38c-.08-3.74-.1-7.47,0-11.21a3.06,3.06,0,0,1,3.29-3.3c2.11,0,3.13,1.35,3.21,3.37C221,169.44,220.89,171.27,220.89,173.09Z"/></svg>